<?xml version="1.0" encoding="iso-8859-1"?>
<!-- Generator: Adobe Illustrator 19.0.0, SVG Export Plug-In . SVG Version: 6.00 Build 0)  -->
<svg version="1.1" id="Capa_1" xmlns="http://www.w3.org/2000/svg" xmlns:xlink="http://www.w3.org/1999/xlink" x="0px" y="0px"
	 viewBox="0 0 512 512" style="enable-background:new 0 0 512 512;" xml:space="preserve">
<path style="fill:#65EAEA;" d="M418.476,41.198C420.489,24.612,407.543,10,390.835,10h-269.67
	c-16.708,0-29.653,14.612-27.641,31.198L98.596,83h314.808L418.476,41.198z"/>
<polygon style="fill:#006597;" points="98.596,83 139.738,422.054 372.262,422.054 413.404,83 "/>
<polygon style="fill:#00ABD5;" points="138.889,83 175.178,382.054 336.822,382.054 373.111,83 "/>
<rect x="139.73" y="422.05" style="fill:#FF6E79;" width="232.53" height="79.946"/>
<path style="fill:#F9545B;" d="M309.667,502H202.333v-3c0-29.639,24.027-53.667,53.667-53.667l0,0
	c29.639,0,53.667,24.027,53.667,53.667V502z"/>
<path style="fill:#65EAEA;" d="M312.829,270.747c0,31.386-25.443,56.829-56.829,56.829s-56.829-25.443-56.829-56.829
	S256,172.559,256,172.559S312.829,239.361,312.829,270.747z"/>
<path d="M256,337.577c-36.85,0-66.829-29.979-66.829-66.829c0-34.081,53.152-97.543,59.212-104.667c1.9-2.233,4.685-3.52,7.617-3.52
	c2.933,0,5.717,1.287,7.617,3.52c6.061,7.124,59.212,70.587,59.212,104.667C322.829,307.597,292.85,337.577,256,337.577z
	 M256,188.298c-20.617,25.825-46.829,64.588-46.829,82.449c0,25.822,21.007,46.829,46.829,46.829
	c25.821,0,46.829-21.007,46.829-46.829C302.829,252.886,276.617,214.124,256,188.298z"/>
<path d="M327.66,141.72c-0.65,0-1.311-0.07-1.95-0.2c-0.641-0.12-1.271-0.32-1.87-0.57c-0.61-0.25-1.19-0.56-1.73-0.92
	c-0.55-0.36-1.06-0.78-1.52-1.24s-0.88-0.97-1.24-1.52c-0.359-0.54-0.67-1.12-0.92-1.73c-0.25-0.6-0.44-1.23-0.57-1.87
	s-0.199-1.3-0.199-1.95s0.069-1.31,0.199-1.95c0.131-0.64,0.32-1.27,0.57-1.87c0.25-0.61,0.56-1.19,0.92-1.73
	c0.36-0.55,0.78-1.06,1.24-1.52s0.97-0.88,1.52-1.24c0.54-0.36,1.12-0.67,1.73-0.92c0.6-0.25,1.229-0.45,1.87-0.57
	c1.29-0.26,2.62-0.26,3.91,0c0.64,0.12,1.27,0.32,1.87,0.57s1.18,0.56,1.72,0.92c0.55,0.36,1.059,0.78,1.52,1.24
	c0.471,0.46,0.88,0.97,1.25,1.52c0.36,0.54,0.67,1.12,0.92,1.73c0.25,0.6,0.44,1.23,0.57,1.87s0.19,1.3,0.19,1.95
	s-0.061,1.31-0.19,1.95c-0.13,0.64-0.32,1.27-0.57,1.87c-0.25,0.61-0.56,1.19-0.92,1.73c-0.37,0.55-0.779,1.06-1.25,1.52
	c-0.46,0.46-0.97,0.88-1.52,1.24c-0.54,0.36-1.12,0.67-1.72,0.92c-0.61,0.25-1.23,0.45-1.87,0.57
	C328.97,141.65,328.31,141.72,327.66,141.72z"/>
<path d="M419.161,12.748C411.983,4.647,401.659,0,390.835,0h-269.67c-10.823,0-21.147,4.646-28.325,12.748
	c-7.178,8.101-10.547,18.91-9.243,29.655l5.073,41.802l41.061,338.382V502c0,5.523,4.477,10,10,10h62.604h107.334h62.592
	c5.522,0,10-4.477,10-10v-79.321L423.33,84.205l5.073-41.802C429.708,31.658,426.339,20.849,419.161,12.748z M107.809,26.011
	c3.434-3.876,8.177-6.011,13.355-6.011h269.67c5.179,0,9.922,2.135,13.356,6.011c3.435,3.876,4.982,8.842,4.358,13.982L404.544,73
	H373.11H138.889h-31.433l-4.005-33.007C102.827,34.853,104.375,29.887,107.809,26.011z M291.057,121.72H153.661L150.176,93h211.647
	l-33.861,279.054H184.037L156.088,141.72h134.969c5.523,0,10-4.477,10-10C301.057,126.197,296.579,121.72,291.057,121.72z
	 M109.883,93h20.146l3.485,28.72h-20.146L109.883,93z M212.894,492c3.359-20.762,21.41-36.667,43.106-36.667
	c21.696,0,39.747,15.904,43.106,36.667H212.894z M362.259,492h-42.985c-3.497-31.823-30.534-56.667-63.274-56.667
	S196.224,460.176,192.726,492H149.73v-59.946h212.529V492z M363.401,412.054H148.598L115.795,141.72h20.146l29.309,241.538
	c0.609,5.02,4.87,8.795,9.927,8.795h161.645c5.057,0,9.318-3.775,9.927-8.795L381.97,93h20.146L363.401,412.054z"/>
<g>
</g>
<g>
</g>
<g>
</g>
<g>
</g>
<g>
</g>
<g>
</g>
<g>
</g>
<g>
</g>
<g>
</g>
<g>
</g>
<g>
</g>
<g>
</g>
<g>
</g>
<g>
</g>
<g>
</g>
</svg>
