<?xml version="1.0" encoding="iso-8859-1"?>
<!-- Generator: Adobe Illustrator 19.0.0, SVG Export Plug-In . SVG Version: 6.00 Build 0)  -->
<svg version="1.1" id="Capa_1" xmlns="http://www.w3.org/2000/svg" xmlns:xlink="http://www.w3.org/1999/xlink" x="0px" y="0px"
	 viewBox="0 0 384.008 384.008" style="enable-background:new 0 0 384.008 384.008;" xml:space="preserve">
<polygon style="fill:#4FC3F7;" points="100.836,314.888 100.836,237.448 276.836,237.448 276.836,368.008 100.836,368.008 "/>
<polygon style="fill:#B3E5FC;" points="231.476,184.648 276.836,237.448 100.836,237.448 146.196,184.648 "/>
<polygon style="fill:#D81B60;" points="267.796,131.848 267.796,184.648 231.476,184.648 146.196,184.648 109.876,184.648 
	109.876,131.848 146.196,131.848 231.476,131.848 "/>
<path style="fill:#FF4081;" d="M231.476,57.368v74.48h-85.28v-74.48c0-22.8,19.12-41.36,42.64-41.36
	C212.356,16.008,231.476,34.568,231.476,57.368z"/>
<path style="fill:#004D40;" d="M91.268,227.864c-0.264,0.352-0.528,0.696-0.76,1.072c-0.304,0.472-0.552,0.968-0.8,1.472
	c-0.192,0.392-0.392,0.768-0.56,1.176c-0.224,0.568-0.384,1.152-0.536,1.736c-0.104,0.376-0.232,0.736-0.304,1.12
	c-0.192,0.992-0.304,2-0.304,3.024v130.544c0,8.832,7.16,16,16,16h176c8.832,0,16-7.168,16-16V237.464
	c0-1.024-0.112-2.032-0.304-3.024c-0.072-0.392-0.208-0.76-0.312-1.144c-0.16-0.576-0.312-1.152-0.536-1.712
	c-0.168-0.416-0.376-0.808-0.568-1.208c-0.24-0.488-0.488-0.976-0.784-1.44c-0.24-0.376-0.504-0.728-0.776-1.088
	c-0.2-0.272-0.368-0.56-0.584-0.824l-22.656-26.36h1.448c8.832,0,16-7.168,16-16v-52.8c0-8.832-7.168-16-16-16h-20.296V57.376
	C250.636,25.736,224.332,0,192.004,0c-32.336,0-58.64,25.736-58.64,57.376v58.488h-20.296c-8.832,0-16,7.168-16,16v52.8
	c0,8.832,7.168,16,16,16h1.448L91.86,227.032C91.636,227.296,91.468,227.592,91.268,227.864z M119.996,352.008v-21.096h26.768
	c8.832,0,16-7.168,16-16s-7.16-16-16-16h-26.768v-45.448h144v98.544H119.996z M165.356,57.384c0-13.992,11.952-25.376,26.64-25.376
	s26.632,11.384,26.632,25.376v58.488h-53.272L165.356,57.384L165.356,57.384z M129.068,147.872h20.296h85.272h20.296v20.8h-20.296
	h-85.28H129.06v-20.8H129.068z M227.284,200.672l17.864,20.792H138.836l17.864-20.792H227.284z"/>
<g>
</g>
<g>
</g>
<g>
</g>
<g>
</g>
<g>
</g>
<g>
</g>
<g>
</g>
<g>
</g>
<g>
</g>
<g>
</g>
<g>
</g>
<g>
</g>
<g>
</g>
<g>
</g>
<g>
</g>
</svg>
