<?xml version="1.0" encoding="iso-8859-1"?>
<!-- Generator: Adobe Illustrator 19.0.0, SVG Export Plug-In . SVG Version: 6.00 Build 0)  -->
<svg version="1.1" id="Capa_1" xmlns="http://www.w3.org/2000/svg" xmlns:xlink="http://www.w3.org/1999/xlink" x="0px" y="0px"
	 viewBox="0 0 512 512" style="enable-background:new 0 0 512 512;" xml:space="preserve">
<g>
	<g>
		<g>
			<path d="M106.667,458.667c0,5.896,4.771,10.667,10.667,10.667c5.896,0,10.667-4.771,10.667-10.667v-85.333
				c0-5.896-4.771-10.667-10.667-10.667c-5.896,0-10.667,4.771-10.667,10.667V458.667z"/>
			<path d="M245.333,0h-64c-5.896,0-10.667,4.771-10.667,10.667v24.604c0,3.76,1.979,7.25,5.219,9.167
				c1.635,0.979,5.448,3.792,5.448,8.896c0,5.104-3.813,7.917-5.448,8.896c-3.24,1.917-5.219,5.406-5.219,9.167v141.938h-64
				C83.135,213.333,64,232.469,64,256H53.333c-5.896,0-10.667,4.771-10.667,10.667V288c0,5.896,4.771,10.667,10.667,10.667H64
				v170.667C64,492.865,83.135,512,106.667,512h106.667C236.865,512,256,492.865,256,469.333V224V71.396
				c0-3.76-1.979-7.25-5.219-9.167c-1.635-0.979-5.448-3.792-5.448-8.896c0-5.104,3.813-7.917,5.448-8.896
				c3.24-1.917,5.219-5.406,5.219-9.167V10.667C256,4.771,251.229,0,245.333,0z M234.667,469.333
				c0,11.76-9.573,21.333-21.333,21.333H106.667c-11.76,0-21.333-9.573-21.333-21.333V256c0-11.76,9.573-21.333,21.333-21.333h128
				V469.333z M234.667,213.333H192V106.667h42.667V213.333z M234.667,29.906c-6.771,6-10.667,14.396-10.667,23.427
				s3.896,17.427,10.667,23.427v8.573H192V76.76c6.771-6,10.667-14.396,10.667-23.427S198.771,35.906,192,29.906v-8.573h42.667
				V29.906z"/>
			<path d="M426.667,234.667v-21.333h10.667c5.896,0,10.667-4.771,10.667-10.667v-64c0-4.042-2.281-7.729-5.896-9.542
				c-11.458-5.729-22.281-36.521-26.313-56.552c-1-4.979-5.375-8.573-10.458-8.573h-42.667c-5.083,0-9.458,3.594-10.458,8.573
				c-4.01,20.021-14.813,50.802-26.313,56.552c-3.615,1.813-5.896,5.5-5.896,9.542v64c0,5.896,4.771,10.667,10.667,10.667h10.667
				v21.333c-23.531,0-42.667,19.135-42.667,42.667v192c0,23.531,19.135,42.667,42.667,42.667h85.333
				c23.531,0,42.667-19.135,42.667-42.667v-192C469.333,253.802,450.198,234.667,426.667,234.667z M371.188,85.333h25.625
				c2.712,10.906,8.052,28.427,16.492,42.667h-58.609C363.135,113.76,368.475,96.24,371.188,85.333z M341.333,149.333h85.333V192
				h-85.333V149.333z M405.333,213.333v21.333h-42.667v-21.333H405.333z M448,469.333c0,11.76-9.573,21.333-21.333,21.333h-85.333
				c-11.76,0-21.333-9.573-21.333-21.333V448h128V469.333z M448,426.667H320v-64h128V426.667z M448,341.333H320v-64
				c0-11.76,9.573-21.333,21.333-21.333h85.333c11.76,0,21.333,9.573,21.333,21.333V341.333z"/>
		</g>
	</g>
</g>
<g>
</g>
<g>
</g>
<g>
</g>
<g>
</g>
<g>
</g>
<g>
</g>
<g>
</g>
<g>
</g>
<g>
</g>
<g>
</g>
<g>
</g>
<g>
</g>
<g>
</g>
<g>
</g>
<g>
</g>
</svg>
