<?xml version="1.0" encoding="iso-8859-1"?>
<!-- Generator: Adobe Illustrator 19.0.0, SVG Export Plug-In . SVG Version: 6.00 Build 0)  -->
<svg version="1.1" id="Capa_1" xmlns="http://www.w3.org/2000/svg" xmlns:xlink="http://www.w3.org/1999/xlink" x="0px" y="0px"
	 viewBox="0 0 480 480" style="enable-background:new 0 0 480 480;" xml:space="preserve">
<linearGradient id="SVGID_1_" gradientUnits="userSpaceOnUse" x1="-44.875" y1="620.122" x2="-44.875" y2="555.125" gradientTransform="matrix(8 0 0 -8 455 4941)">
	<stop  offset="0" style="stop-color:#FC5C7D"/>
	<stop  offset="0.129" style="stop-color:#F35E85"/>
	<stop  offset="0.343" style="stop-color:#D9659B"/>
	<stop  offset="0.616" style="stop-color:#B070BF"/>
	<stop  offset="0.934" style="stop-color:#777FF0"/>
	<stop  offset="1" style="stop-color:#6A82FB"/>
</linearGradient>
<path style="fill:url(#SVGID_1_);" d="M88,224h16v64H88V224z"/>
<g>
	
		<linearGradient id="SVGID_2_" gradientUnits="userSpaceOnUse" x1="-22.4745" y1="620.122" x2="-22.4745" y2="555.125" gradientTransform="matrix(8 0 0 -8 455 4941)">
		<stop  offset="0" style="stop-color:#FC5C7D"/>
		<stop  offset="0.129" style="stop-color:#F35E85"/>
		<stop  offset="0.343" style="stop-color:#D9659B"/>
		<stop  offset="0.616" style="stop-color:#B070BF"/>
		<stop  offset="0.934" style="stop-color:#777FF0"/>
		<stop  offset="1" style="stop-color:#6A82FB"/>
	</linearGradient>
	<path style="fill:url(#SVGID_2_);" d="M386.592,104.72L104.72,386.592c-3.123,3.126-3.12,8.191,0.006,11.314
		c0.15,0.15,0.305,0.293,0.466,0.43c87.402,74.499,218.649,64.039,293.148-23.363c66.253-77.728,66.251-192.063-0.004-269.789
		c-1.448-1.697-3.539-2.712-5.768-2.8C390.334,102.275,388.16,103.125,386.592,104.72L386.592,104.72z M376,240v32h-48v-32H376z
		 M312,272h-70.064l32-32H312V272z M432,240c0.032,106.008-85.878,191.97-191.885,192.002
		c-42.665,0.013-84.118-14.189-117.811-40.362L225.936,288H384c4.418,0,8-3.582,8-8v-48c0-4.418-3.582-8-8-8h-94.064L391.64,122.296
		C417.786,155.963,431.986,197.373,432,240z"/>
	
		<linearGradient id="SVGID_3_" gradientUnits="userSpaceOnUse" x1="-26.875" y1="620.122" x2="-26.875" y2="555.125" gradientTransform="matrix(8 0 0 -8 455 4941)">
		<stop  offset="0" style="stop-color:#FC5C7D"/>
		<stop  offset="0.129" style="stop-color:#F35E85"/>
		<stop  offset="0.343" style="stop-color:#D9659B"/>
		<stop  offset="0.616" style="stop-color:#B070BF"/>
		<stop  offset="0.934" style="stop-color:#777FF0"/>
		<stop  offset="1" style="stop-color:#6A82FB"/>
	</linearGradient>
	<path style="fill:url(#SVGID_3_);" d="M240,0C107.452,0,0,107.452,0,240s107.452,240,240,240s240-107.452,240-240
		C479.85,107.514,372.486,0.15,240,0z M240,464C116.288,464,16,363.712,16,240S116.288,16,240,16s224,100.288,224,224
		C463.859,363.653,363.653,463.859,240,464z"/>
	
		<linearGradient id="SVGID_4_" gradientUnits="userSpaceOnUse" x1="-31.2737" y1="620.122" x2="-31.2737" y2="555.125" gradientTransform="matrix(8 0 0 -8 455 4941)">
		<stop  offset="0" style="stop-color:#FC5C7D"/>
		<stop  offset="0.129" style="stop-color:#F35E85"/>
		<stop  offset="0.343" style="stop-color:#D9659B"/>
		<stop  offset="0.616" style="stop-color:#B070BF"/>
		<stop  offset="0.934" style="stop-color:#777FF0"/>
		<stop  offset="1" style="stop-color:#6A82FB"/>
	</linearGradient>
	<path style="fill:url(#SVGID_4_);" d="M377.6,87.432c-0.09-2.23-1.108-4.321-2.808-5.768
		C287.362,7.197,156.12,17.706,81.653,105.136c-66.189,77.711-66.184,191.975,0.011,269.68c1.448,1.697,3.539,2.712,5.768,2.8h0.32
		c2.122,0,4.156-0.844,5.656-2.344L375.28,93.408C376.853,91.826,377.693,89.66,377.6,87.432z M174.064,272H136v-32h70.064
		L174.064,272z M222.064,224H128c-4.418,0-8,3.582-8,8v48c0,4.418,3.582,8,8,8h30.064L88.36,357.704
		c-65.025-83.728-49.863-204.316,33.865-269.34c69.272-53.798,166.198-53.799,235.471-0.004L222.064,224z"/>
	
		<linearGradient id="SVGID_5_" gradientUnits="userSpaceOnUse" x1="-35.875" y1="620.122" x2="-35.875" y2="555.125" gradientTransform="matrix(8 0 0 -8 455 4941)">
		<stop  offset="0" style="stop-color:#FC5C7D"/>
		<stop  offset="0.129" style="stop-color:#F35E85"/>
		<stop  offset="0.343" style="stop-color:#D9659B"/>
		<stop  offset="0.616" style="stop-color:#B070BF"/>
		<stop  offset="0.934" style="stop-color:#777FF0"/>
		<stop  offset="1" style="stop-color:#6A82FB"/>
	</linearGradient>
	<path style="fill:url(#SVGID_5_);" d="M160,144c-4.418,0-8-3.582-8-8s3.582-8,8-8h40c13.255,0,24-10.745,24-24V88h-16v16
		c0,4.418-3.582,8-8,8h-40c-13.255,0-24,10.745-24,24s10.745,24,24,24h64c4.418,0,8,3.582,8,8s-3.582,8-8,8H112
		c-13.255,0-24,10.745-24,24v8h16v-8c0-4.418,3.582-8,8-8h112c13.255,0,24-10.745,24-24s-10.745-24-24-24H160z"/>
</g>
<g>
</g>
<g>
</g>
<g>
</g>
<g>
</g>
<g>
</g>
<g>
</g>
<g>
</g>
<g>
</g>
<g>
</g>
<g>
</g>
<g>
</g>
<g>
</g>
<g>
</g>
<g>
</g>
<g>
</g>
</svg>
