<?xml version="1.0" encoding="iso-8859-1"?>
<!-- Generator: Adobe Illustrator 19.0.0, SVG Export Plug-In . SVG Version: 6.00 Build 0)  -->
<svg version="1.1" id="Capa_1" xmlns="http://www.w3.org/2000/svg" xmlns:xlink="http://www.w3.org/1999/xlink" x="0px" y="0px"
	 viewBox="0 0 512 512" style="enable-background:new 0 0 512 512;" xml:space="preserve">
<g transform="matrix(1.25 0 0 -1.25 0 45)">
	<g>
		<g>
			<path style="fill:#226699;" d="M409.6-168.8c0-113.106-91.694-204.8-204.8-204.8S0-281.906,0-168.8S91.694,36,204.8,36
				S409.6-55.694,409.6-168.8"/>
			<path d="M295.822-191.556c0-50.267-40.755-91.022-91.022-91.022c-50.278,0-91.022,40.755-91.022,91.022
				c0,50.278,40.744,91.022,91.022,91.022C255.067-100.533,295.822-141.277,295.822-191.556"/>
			<path style="fill:#BBDDF5;" d="M295.822-168.8c0-50.267-40.755-91.022-91.022-91.022c-50.278,0-91.022,40.755-91.022,91.022
				c0,50.278,40.744,91.022,91.022,91.022C255.067-77.778,295.822-118.522,295.822-168.8"/>
		</g>
	</g>
</g>
<g>
</g>
<g>
</g>
<g>
</g>
<g>
</g>
<g>
</g>
<g>
</g>
<g>
</g>
<g>
</g>
<g>
</g>
<g>
</g>
<g>
</g>
<g>
</g>
<g>
</g>
<g>
</g>
<g>
</g>
</svg>
