<svg xmlns="http://www.w3.org/2000/svg" xmlns:xlink="http://www.w3.org/1999/xlink" version="1.1" id="nav-logo" x="0px" y="0px" viewBox="0 0 136 30" enable-background="new 0 0 136 30" xml:space="preserve" class="svg replaced-svg">
<g>
	<path fill="#444" d="M23.1,20.1c0-0.7-0.3-1.4-0.7-2.1c-0.4-0.7-1-1.3-1.7-1.8c-1.4-1-2.8-1.6-4.4-1.9c-1.6-0.3-3.2-0.5-4.8-0.6   s-3.2-0.4-4.7-1c-0.6-0.2-1.1-0.5-1.5-0.9C5,11.5,4.8,11,4.8,10.5c0.1-1,0.5-1.6,1.5-2.1c0.9-0.4,1.9-0.7,3-0.8   c1.1-0.1,2-0.2,2.6-0.1c2-0.1,3.7,0.3,5.1,1s2.3,1.9,3,4.1c0,0,0.1,0.2,0.2,0.3c0.2,0.2,0.4,0.1,0.4,0.1c0.3,0,0.5-0.1,0.7-0.4   c0.2-0.3,0.3-0.6,0.3-1.1V9.2c0-1-0.1-1.6-0.1-1.9C21.4,7,21.2,6.9,21,6.9c0,0-0.6-0.2-0.8-0.3c-0.2-0.1-0.6-0.2-0.6-0.2   c-1.1-0.4-2.5-0.6-4-0.8c-1.6-0.1-3-0.2-4.4-0.2C9.6,5.4,8,5.6,6.3,6S3.1,7.1,1.9,8S0.1,10.2,0,11.6c0.1,1.5,0.8,2.6,2,3.4   c1.3,0.8,2.7,1.4,4.2,1.7c1.6,0.3,2.9,0.5,3.9,0.6l3.6,0.5c1.3,0.2,2.3,0.6,3.2,1.1c0.9,0.5,1.3,1.3,1.4,2.4   c-0.1,1.1-0.6,1.9-1.5,2.5s-2,0.9-3.2,1.1s-2,0.2-2.9,0.3C8.6,25.3,7,25,5.6,24.4c-1.4-0.6-2.4-2-3-4.1c0,0-0.1-0.4-0.2-0.5   c-0.1-0.1-0.2-0.1-0.2-0.1c-0.3,0-0.5,0.2-0.8,0.6C1.2,20.7,1,21.2,1,21.7v3.5c0,0.3,0.1,0.5,0.2,0.7c0.3,0,0.6,0.1,1,0.1   c1.8,0.5,3.5,0.9,5.1,1c1.6,0.2,2.9,0.2,3.9,0.2h0.3c1.5,0,3.2-0.2,5-0.7c1.8-0.4,3.3-1.2,4.6-2.2C22.4,23.2,23,21.8,23.1,20.1   L23.1,20.1L23.1,20.1z"></path>
	<path fill="#444" d="M65.3,26.3l-0.8-0.1L63.6,26c-0.4-0.2-0.8-0.5-1.2-1.1s-0.7-1.1-0.9-1.7L56.8,7.9V7.8V7.7   c0-0.4,0.4-0.7,1-0.8l1.9-0.4c0.6-0.1,1-0.2,1.1-0.5c0-0.1-0.1-0.2-0.3-0.3c-0.2-0.1-0.8-0.2-1.8-0.3h-3.9c-0.8,0-1.3,0-1.9,0.2   c-0.6,0.2-1.3,0.7-1.6,1.3l-7.5,14.9l-8-14.9c-0.3-0.6-0.8-1-1.3-1.2C34,5.4,33.6,5.4,33,5.4h-5.8c-0.5,0-0.9,0.1-1.1,0.2   s-0.3,0.2-0.3,0.3c0,0.3,0.4,0.4,1,0.5s1.2,0.3,1.8,0.7c0.6,0.3,0.9,1,1,1.9v0.7l-0.1,0.6l-4,13c-0.2,0.6-0.4,1.1-0.8,1.7   c-0.3,0.5-0.6,0.7-1.1,0.8L22.8,26l-1,0.2c-0.5,0.1-0.8,0.3-0.8,0.5c0,0.3,0.2,0.4,0.6,0.5h1.1h6.8c0.7,0,1.2,0,1.5-0.1   s0.4-0.2,0.4-0.3c-0.1-0.3-0.4-0.4-0.9-0.6c-0.7-0.1-1-0.2-1.7-0.5c-0.6-0.2-1-0.4-0.9-1l0.1-0.3l0.5-1.6l1.3-4.2l2.5-8L40.4,26   c0.3,0.5,0.6,0.9,0.9,1.1c0.3,0.2,0.7,0.3,1,0.3c0.6,0,1.2-0.3,1.6-0.8c0.5-0.5,0.8-1.1,1.1-1.7l7.3-14.4l4.3,13.8v0.1   c0,0.1,0,0.2,0,0.2c-0.1,0.6-0.4,0.9-0.9,1.1L54,26.1c-0.6,0.1-0.9,0.3-0.9,0.6l0.2,0.2l0.6,0.1h11.4c0.1,0,0.2-0.1,0.3-0.2   c0-0.1,0.1-0.1,0.1-0.2s-0.1-0.3-0.1-0.3C65.5,26.4,65.4,26.4,65.3,26.3L65.3,26.3z"></path>
	<path fill="#444" d="M95.6,15.8c-0.1-2.3-1-4.2-2.5-5.8c-1.6-1.5-3.5-2.7-5.8-3.5s-4.4-1.1-6.5-1.1c-2.4,0-4.8,0.4-7.2,1.1   c-2.4,0.8-4.4,1.9-6.2,3.4c-1.8,1.5-3.2,3.3-3.6,5.5c-0.1,0.4-0.1,1.1-0.1,1.5c0,2.2,1,4.1,2.4,5.6c1.5,1.5,3.3,2.7,5.5,3.5   c2.1,0.8,4.3,1.2,6.5,1.2h0.4c2.9,0,5-0.4,7.6-1.1c2.6-0.8,4.8-2,6.6-3.7C94.4,20.6,95.5,18.7,95.6,15.8 M80.6,25.1   c-1.9,0-3.7-0.4-5.4-1.1c-1.7-0.8-3.1-1.9-4.2-3.2c-1.1-1.4-1.7-3-1.7-4.9v-0.3v-0.4c0.2-1.5,0.8-2.8,1.8-3.9   c0.9-1.1,2.1-2,3.5-2.6s2.9-1,4.4-1c1.7,0,3.4,0.4,5,1.2c1.7,0.8,3,1.9,4.1,3.3s1.5,2.9,1.6,4.7c0,1.7-0.5,3.1-1.4,4.3   c-0.9,1.2-1.9,2.2-3.4,2.9C83.6,24.7,82.3,25.1,80.6,25.1L80.6,25.1z"></path>
	<path fill="#444" d="M103.1,9c0-0.5,0.2-0.8,0.3-1.1c0.3-0.6,0.9-1,1.6-1.2l1.8-0.3c0.7-0.1,0.9-0.2,0.9-0.5   c0-0.2-0.2-0.4-0.6-0.5h-0.9H94.9h-1c-0.3,0-0.5,0.2-0.5,0.5s0.3,0.5,0.9,0.5l1.9,0.3c0.7,0.2,1.2,0.5,1.6,1.2c0,0,0.2,0.5,0.2,1   s0.1,2.1,0.1,2.1v11.6c-0.1,1.7-0.5,2.7-1.2,3c-0.7,0.4-1.5,0.5-2.2,0.5c-0.8,0-1.2,0.2-1.2,0.6c0,0.2,0.1,0.4,0.5,0.5h1h11.4h1   c0.3-0.1,0.4-0.2,0.5-0.5c0-0.3-0.3-0.5-0.9-0.5l-1.8-0.3c-0.7-0.2-1.2-0.5-1.6-1.2c-0.1-0.2-0.2-0.6-0.2-1.1l-0.1-2.1v-2l4.5-3.8   c1.4,2.2,2.9,4.3,4.7,6.3c1.7,2.1,3.7,3.8,5.9,5.3c2.2,1.4,4.7,2.3,7.4,2.5c0,0,1.4,0.1,2.1,0c0.3,0,1.1-0.1,1.1-0.1   c0.6-0.1,0.7-0.2,0.7-0.4c0-0.2-0.3-0.4-0.7-0.4l-1-0.1c-1-0.2-2.1-0.6-3.3-1.3c-1.2-0.7-2.2-1.3-2.9-2c-1.6-1.4-3.2-3.2-4.7-5.2   l-5.6-7.6l4.9-4.2c0.7-0.6,1.3-1.1,2-1.4c0.6-0.4,1.3-0.6,2-0.7c0,0,0.5-0.1,0.8-0.3c0.2-0.1,0.4-0.3,0.4-0.5s-0.1-0.2-0.2-0.3   c-0.1-0.1-0.6-0.1-0.6-0.1h-10c-0.2,0-0.4,0.1-0.5,0.2s-0.1,0.2-0.1,0.3c0,0.3,0.3,0.5,0.9,0.6l1.7,0.3c0.6,0.1,0.9,0.3,1,0.6v0.1   l-5.1,4.4l-5.1,4.4C103.1,13.8,103.1,11.4,103.1,9"></path>
	<path fill="#444" d="M128.3,2.9h2.5c0.2,0,0.6,0,0.9,0.2c0.3,0.2,0.5,0.5,0.5,1s-0.2,0.9-0.5,1c-0.3,0.2-0.7,0.2-1,0.2h-2.3l0,0   l0,0L128.3,2.9L128.3,2.9L128.3,2.9z M130.7,6.2c0.6,0,0.9,0.2,1.1,0.4c0.2,0.2,0.2,0.5,0.2,0.8l0,0c0,0.1,0,0.5,0,0.8   c0,0.1,0,0.1,0,0.2c0,0.3,0.1,0.6,0.1,0.8l0,0l0,0h1.2l0,0l0,0V9l0,0l0,0c-0.1-0.1-0.2-0.2-0.3-0.3s-0.1-0.2-0.1-0.4L133,7   c0-0.5-0.1-0.8-0.3-1c-0.1-0.2-0.3-0.3-0.5-0.3c0.2-0.1,0.4-0.3,0.6-0.5c0.2-0.3,0.3-0.6,0.3-1.2l0,0c0-0.8-0.3-1.2-0.8-1.5   s-1.1-0.4-1.7-0.4h-3.4l0,0l0,0v7.1l0,0l0,0h1l0,0l0,0v-3H130.7z"></path>
	<path fill="#444" d="M130.2,0c-3.2,0-5.8,2.5-5.8,5.7c0,3.1,2.6,5.7,5.8,5.7c3.2,0,5.8-2.5,5.8-5.7S133.4,0,130.2,0 M130.2,10.9   c-3,0-5.4-2.3-5.4-5.2s2.4-5.2,5.4-5.2s5.4,2.3,5.4,5.2C135.6,8.5,133.2,10.9,130.2,10.9"></path>
</g>
</svg>